# File created by Blade
# Date/Time:  Thu Jan 22 15:33:01 2015
# Frame Rate: 120.000 fps
#------------------------------------------------------
:FULLY-SPECIFIED
:DEGREES
1552
root 2.176783 17.006260 4.996022 305.924208 -80.101611 -498.985322
RightUpLeg -103.168644 3.862735 -3.009994
RightLeg 5.336305 -0.000000 -0.000000
RightFoot 30.904956 44.429324 -48.964455
RightToeBase -48.672876 -0.000000 0.000000
LeftUpLeg -103.121684 -5.226763 -27.193672
LeftLeg 13.155525 -0.000000 -0.000000
LeftFoot 37.405750 -23.819820 -0.939460
LeftToeBase 29.032526 -0.000000 -0.000000
Spine 50.323246 2.874671 -7.599669
RightShoulder -172.585689 36.065711 173.997200
RightArm 162.752409 54.772955 99.326894
RightForeArm 62.948061 -0.000000 104.088081
RightHand 10.416356 -0.000000 -9.067173
RightHandThumb1 -24.326973 -0.000000 -32.862282
LeftShoulder -10.874029 41.823405 18.981422
LeftArm 14.067225 61.929122 -59.066683
LeftForeArm -33.527569 -0.000000 104.566586
LeftHand -29.552410 -0.000000 0.426277
LeftHandThumb1 -26.253704 0.000000 33.147579
Head 78.141216 -5.750096 -46.107829
1553
root 2.176814 16.993884 4.990356 305.075624 -80.143522 -498.225961
RightUpLeg -103.076453 3.925460 -3.083570
RightLeg 5.358683 -0.000000 -0.000000
RightFoot 31.235521 44.183612 -48.557356
RightToeBase -48.765977 -0.000000 0.000000
LeftUpLeg -103.035030 -5.134152 -27.391959
LeftLeg 13.159250 -0.000000 -0.000000
LeftFoot 37.349098 -24.202398 -0.571870
LeftToeBase 29.134827 -0.000000 -0.000000
Spine 50.448699 3.049148 -7.636430
RightShoulder -172.552780 35.948006 174.055550
RightArm 162.627455 54.789083 99.219416
RightForeArm 62.934144 -0.000000 104.020510
RightHand 10.397259 -0.000000 -8.929725
RightHandThumb1 -24.326973 -0.000000 -32.862282
LeftShoulder -10.903227 41.764964 18.986330
LeftArm 14.154929 61.944053 -58.969838
LeftForeArm -33.542535 -0.000000 104.572791
LeftHand -29.547507 -0.000000 0.401895
LeftHandThumb1 -26.253704 0.000000 33.147579
Head 78.156679 -5.796267 -46.087322
1554
root 2.176353 16.982970 4.987776 304.405733 -80.188755 -497.627764
RightUpLeg -102.998463 3.962365 -3.133268
RightLeg 5.382707 -0.000000 -0.000000
RightFoot 31.682015 43.931827 -47.860604
RightToeBase -48.513900 -0.000000 0.000000
LeftUpLeg -102.948945 -5.063137 -27.503340
LeftLeg 13.118345 -0.000000 -0.000000
LeftFoot 37.363123 -24.332752 -0.437691
LeftToeBase 29.055281 -0.000000 -0.000000
Spine 50.549978 3.154077 -7.682145
RightShoulder -172.578165 35.886223 174.069434
RightArm 162.608742 54.798961 99.208560
RightForeArm 62.995264 0.000000 103.975859
RightHand 10.405174 -0.000000 -8.852095
RightHandThumb1 -24.326973 -0.000000 -32.862282
LeftShoulder -10.956676 41.685619 18.956953
LeftArm 14.133298 61.980022 -58.981888
LeftForeArm -33.561960 0.000000 104.570824
LeftHand -29.543181 -0.000000 0.372808
LeftHandThumb1 -26.253704 0.000000 33.147579
Head 78.120018 -5.790121 -46.129273
1555
root 2.175859 16.975975 4.985800 303.808605 -80.235544 -497.102280
RightUpLeg -102.917882 3.983128 -3.214305
RightLeg 5.396999 -0.000000 -0.000000
RightFoot 31.911298 43.784460 -47.451357
RightToeBase -48.022375 -0.000000 0.000000
LeftUpLeg -102.883380 -4.995943 -27.543502
LeftLeg 13.092390 -0.000000 -0.000000
LeftFoot 37.325032 -24.258208 -0.669772
LeftToeBase 29.185950 -0.000000 -0.000000
Spine 50.642501 3.248351 -7.705068
RightShoulder -172.603399 35.791560 174.048332
RightArm 162.501248 54.815880 99.101305
RightForeArm 63.036843 -0.000000 103.953031
RightHand 10.412719 -0.000000 -8.859714
RightHandThumb1 -24.326973 -0.000000 -32.862282
LeftShoulder -11.013154 41.630000 18.935551
LeftArm 14.166557 61.997010 -58.938253
LeftForeArm -33.548563 0.000000 104.568064
LeftHand -29.495487 -0.000000 0.207083
LeftHandThumb1 -26.253704 0.000000 33.147579
Head 78.067143 -5.800349 -46.124553
1556
root 2.176734 16.967360 4.984069 303.262497 -80.293151 -496.648840
RightUpLeg -102.815698 4.005012 -3.231419
RightLeg 5.424602 -0.000000 -0.000000
RightFoot 31.635365 43.970785 -47.775671
RightToeBase -47.536043 -0.000000 0.000000
LeftUpLeg -102.804731 -4.932075 -27.601668
LeftLeg 13.110064 -0.000000 -0.000000
LeftFoot 37.221387 -24.590980 -0.409958
LeftToeBase 29.072264 -0.000000 -0.000000
Spine 50.756730 3.330150 -7.715106
RightShoulder -172.629317 35.687532 174.035119
RightArm 162.399517 54.820955 99.018797
RightForeArm 63.146684 -0.000000 103.963830
RightHand 10.359475 -0.000000 -8.897513
RightHandThumb1 -24.326973 -0.000000 -32.862282
LeftShoulder -11.073574 41.555070 18.906041
LeftArm 14.144344 62.031944 -58.954136
LeftForeArm -33.660084 -0.000000 104.602250
LeftHand -29.592544 0.000000 0.366487
LeftHandThumb1 -26.253704 0.000000 33.147579
Head 78.019314 -5.796548 -46.148026
1557
root 2.176772 16.956404 4.985559 302.582860 -80.327307 -496.063644
RightUpLeg -102.712602 4.029437 -3.235805
RightLeg 5.450057 -0.000000 -0.000000
RightFoot 31.798136 43.832999 -47.454480
RightToeBase -47.659193 -0.000000 0.000000
LeftUpLeg -102.714409 -4.863069 -27.754992
LeftLeg 13.117859 -0.000000 -0.000000
LeftFoot 37.157505 -24.536749 -0.519636
LeftToeBase 28.856681 -0.000000 -0.000000
Spine 50.877144 3.419440 -7.740234
RightShoulder -172.664836 35.582134 174.015861
RightArm 162.272592 54.808954 98.896987
RightForeArm 63.210265 -0.000000 103.972095
RightHand 10.373270 -0.000000 -8.946720
RightHandThumb1 -24.326973 -0.000000 -32.862282
LeftShoulder -11.103772 41.505455 18.867444
LeftArm 14.143963 62.021133 -58.948987
LeftForeArm -33.700057 -0.000000 104.601162
LeftHand -29.564410 -0.000000 0.335716
LeftHandThumb1 -26.253704 0.000000 33.147579
Head 78.025495 -5.842423 -46.402064
1558
root 2.193559 16.956653 4.983533 302.045291 -80.344136 -495.355247
RightUpLeg -102.952029 4.029671 -3.410281
RightLeg 5.582082 -0.000000 -0.000000
RightFoot 31.751024 43.661766 -47.516118
RightToeBase -48.265456 -0.000000 0.000000
LeftUpLeg -102.924483 -4.898599 -27.775762
LeftLeg 13.230103 -0.000000 -0.000000
LeftFoot 36.892467 -24.723257 -0.405618
LeftToeBase 29.117692 -0.000000 -0.000000
Spine 50.729284 3.701048 -7.736800
RightShoulder -172.245303 35.486560 174.495088
RightArm 162.200333 54.905476 99.137413
RightForeArm 63.409501 -0.000000 104.059343
RightHand 10.413103 -0.000000 -8.997408
RightHandThumb1 -24.326973 -0.000000 -32.862282
LeftShoulder -11.154720 41.432805 18.964265
LeftArm 14.446824 62.126898 -58.687454
LeftForeArm -33.658711 0.000000 104.495281
LeftHand -29.578048 -0.000000 0.264796
LeftHandThumb1 -26.253704 0.000000 33.147579
Head 78.351640 -6.112025 -46.289826
1559
root 2.194822 16.949444 4.987396 301.663657 -80.377703 -495.044811
RightUpLeg -102.871784 4.002178 -3.414851
RightLeg 5.599107 -0.000000 -0.000000
RightFoot 31.674950 43.770000 -47.455053
RightToeBase -47.957603 -0.000000 0.000000
LeftUpLeg -102.863744 -4.892521 -27.911633
LeftLeg 13.310817 -0.000000 -0.000000
LeftFoot 36.833267 -24.734609 -0.128842
LeftToeBase 28.913763 -0.000000 -0.000000
Spine 50.824067 3.753759 -7.715475
RightShoulder -172.236512 35.426582 174.491058
RightArm 162.140231 54.908747 99.074449
RightForeArm 63.545539 0.000000 104.092011
RightHand 10.398222 -0.000000 -9.106817
RightHandThumb1 -24.326973 -0.000000 -32.862282
LeftShoulder -11.196067 41.393137 18.912636
LeftArm 14.504504 62.115077 -58.614663
LeftForeArm -33.687384 -0.000000 104.500284
LeftHand -29.622810 -0.000000 0.265169
LeftHandThumb1 -26.253704 0.000000 33.147579
Head 78.295628 -6.045867 -46.207825
1560
root 2.197014 16.941078 4.991529 301.220682 -80.397048 -494.727265
RightUpLeg -102.738685 3.977732 -3.397580
RightLeg 5.610768 -0.000000 -0.000000
RightFoot 31.512388 43.951102 -47.536531
RightToeBase -47.806036 -0.000000 0.000000
LeftUpLeg -102.755816 -4.865590 -28.099888
LeftLeg 13.413933 -0.000000 -0.000000
LeftFoot 36.766528 -24.839602 0.075481
LeftToeBase 28.894356 -0.000000 -0.000000
Spine 50.975280 3.799288 -7.721014
RightShoulder -172.245983 35.331536 174.474894
RightArm 162.048882 54.928412 98.988093
RightForeArm 63.648358 -0.000000 104.106387
RightHand 10.440422 0.000000 -9.018809
RightHandThumb1 -24.326973 -0.000000 -32.862282
LeftShoulder -11.228041 41.350630 18.870181
LeftArm 14.466060 62.097933 -58.657963
LeftForeArm -33.707933 -0.000000 104.502845
LeftHand -29.655982 -0.000000 0.327189
LeftHandThumb1 -26.253704 0.000000 33.147579
Head 78.271636 -6.032407 -46.289851
1561
root 2.199181 16.933313 4.997790 300.706808 -80.398312 -494.327138
RightUpLeg -102.609224 3.947616 -3.401226
RightLeg 5.587593 -0.000000 -0.000000
RightFoot 31.468246 43.997966 -47.484345
RightToeBase -47.944555 -0.000000 0.000000
LeftUpLeg -102.650051 -4.850913 -28.330081
LeftLeg 13.514001 -0.000000 -0.000000
LeftFoot 36.715864 -25.017725 0.177778
LeftToeBase 28.884515 -0.000000 -0.000000
Spine 51.111864 3.842857 -7.744720
RightShoulder -172.254633 35.240336 174.458239
RightArm 161.956563 54.949993 98.908595
RightForeArm 63.714603 0.000000 104.084316
RightHand 10.493408 0.000000 -8.865402
RightHandThumb1 -24.326973 -0.000000 -32.862282
LeftShoulder -11.263738 41.309789 18.816783
LeftArm 14.444348 62.080474 -58.669429
LeftForeArm -33.644610 -0.000000 104.492706
LeftHand -29.632987 -0.000000 0.259595
LeftHandThumb1 -26.253704 0.000000 33.147579
Head 78.244175 -6.016391 -46.380793
1562
root 2.202812 16.926931 5.005413 300.346025 -80.398101 -494.086574
RightUpLeg -102.478657 3.893892 -3.382194
RightLeg 5.568550 -0.000000 -0.000000
RightFoot 31.218513 44.206530 -47.681366
RightToeBase -47.917209 -0.000000 0.000000
LeftUpLeg -102.525804 -4.854382 -28.528902
LeftLeg 13.596985 -0.000000 -0.000000
LeftFoot 36.637716 -25.112453 0.259287
LeftToeBase 28.684605 -0.000000 -0.000000
Spine 51.246711 3.852449 -7.752716
RightShoulder -172.260370 35.179858 174.424047
RightArm 161.907017 54.961929 98.850457
RightForeArm 63.766960 -0.000000 104.059735
RightHand 10.484464 -0.000000 -8.826763
RightHandThumb1 -24.326973 -0.000000 -32.862282
LeftShoulder -11.308926 41.284821 18.742291
LeftArm 14.442047 62.060986 -58.658382
LeftForeArm -33.655731 0.000000 104.501558
LeftHand -29.637906 -0.000000 0.251265
LeftHandThumb1 -26.253704 0.000000 33.147579
Head 78.259503 -6.011367 -46.544345
